Coordinates
version=1
nRows=16
nColumns=42
inDegrees=yes

Units are S.I. units (second, meters, Newtons, ...)
If the header above contains a line with 'inDegrees', this indicates whether rotational values are in degrees (yes) or radians (no).

endheader
time	pelvis_tilt	pelvis_list	pelvis_rotation	pelvis_tx	pelvis_ty	pelvis_tz	hip_flexion_r	hip_adduction_r	hip_rotation_r	knee_angle_r	knee_adduction_r	knee_angle_r_beta	ankle_angle_r	subtalar_angle_r	mtp_angle_r	hip_flexion_l	hip_adduction_l	hip_rotation_l	knee_angle_l	knee_adduction_l	knee_angle_l_beta	ankle_angle_l	subtalar_angle_l	mtp_angle_l	lumbar_extension	lumbar_bending	lumbar_rotation	arm_flex_r	arm_add_r	arm_rot_r	elbow_flex_r	pro_sup_r	wrist_flex_r	wrist_dev_r	arm_flex_l	arm_add_l	arm_rot_l	elbow_flex_l	pro_sup_l	wrist_flex_l	wrist_dev_l
      2.32000000	     14.05906471	      1.43223204	      2.57498152	     -0.50929623	      0.91344752	     -0.00617236	      6.95163067	     -9.01263365	    -28.57124771	     20.69851317	      1.92694488	      0.36125721	      7.47739905	     36.61367071	     -7.51149745	    -25.47246228	      3.91889757	     -0.11814909	     20.68593915	     -7.44119365	      0.36103775	     19.93203664	     11.81171702	     -7.51149745	    -33.30277185	      0.38861678	     -5.85065699	    -15.06175794	    -11.92440210	      3.10040320	     36.76817016	     90.00000001	      0.00000000	      0.00000000	     28.13321117	    -14.68872855	    -20.66607463	     48.46470631	     90.00000001	      0.00000000	      0.00000000
      2.33000000	     14.43074084	      1.29347844	      2.49164061	     -0.49942432	      0.91355987	     -0.00464707	      6.29876204	     -8.74775379	    -27.94610056	     21.51671556	      1.78637579	      0.37553753	      7.39717890	     36.53919067	     -7.51143798	    -26.15880406	      3.59425407	      0.01240355	     21.47666319	     -7.26547593	      0.37483848	     19.43809463	     11.76224081	     -7.51143798	    -33.41999943	      0.64415154	     -5.60468226	    -14.50981377	    -11.97813352	      3.00228572	     36.47082205	     90.00000001	      0.00000000	      0.00000000	     27.59333657	    -14.79294966	    -20.78324680	     48.99928646	     90.00000001	      0.00000000	      0.00000000
      2.34000000	     14.85015667	      1.06007117	      2.31236476	     -0.48944331	      0.91394244	     -0.00267767	      5.60213564	     -8.31091073	    -27.43323678	     22.31331629	      1.58393542	      0.38944084	      7.54449484	     36.19448377	     -7.51132289	    -26.65064359	      3.07398358	     -0.39787295	     22.72715469	     -6.92544233	      0.39666368	     18.37064414	     11.35986495	     -7.51132289	    -33.62484789	      0.89974931	     -5.36148398	    -13.65198905	    -11.96196582	      2.81934443	     35.72598302	     90.00000001	      0.00000000	      0.00000000	     26.55497762	    -14.96346401	    -21.00061793	     50.43866565	     90.00000001	      0.00000000	      0.00000000
      2.35000000	     15.30970166	      0.92544272	      2.12466342	     -0.47966994	      0.91456078	     -0.00083103	      4.86828626	     -7.94555852	    -26.71061794	     23.06820194	      1.36533775	      0.40261608	      7.51804466	     36.25665785	     -7.51126843	    -27.12921607	      2.81608775	     -0.34220051	     24.03400539	     -6.81136516	      0.41947253	     17.50315986	     11.28975548	     -7.51126843	    -33.88645853	      1.08026397	     -5.09966859	    -12.88646952	    -11.99309677	      2.72944820	     35.41044896	     90.00000001	      0.00000000	      0.00000000	     25.86086699	    -15.09529599	    -21.15141406	     51.07221122	     90.00000001	      0.00000000	      0.00000000
      2.36000000	     15.64541259	      0.59722091	      1.86114106	     -0.46967583	      0.91506636	      0.00158781	      4.18187659	     -7.26151454	    -26.07840818	     23.55052120	      1.12833514	      0.41103414	      7.85321669	     36.06480904	     -7.51109104	    -26.97427125	      2.23215435	     -1.37025626	     26.31580151	     -6.67438352	      0.45929738	     15.71612238	     10.53532146	     -7.51109104	    -34.00531356	      1.33157503	     -4.89220223	    -11.76790535	    -11.91383151	      2.53076218	     34.44248073	     90.00000001	      0.00000000	      0.00000000	     24.43263246	    -15.30211534	    -21.40876027	     52.88726711	     90.00000001	      0.00000000	      0.00000000
      2.37000000	     16.11399441	      0.36834933	      1.58196789	     -0.45981303	      0.91594120	      0.00395828	      3.32018842	     -6.72229558	    -25.41552989	     24.02582552	      0.97547154	      0.41932976	      8.06760377	     36.12952272	     -7.51092650	    -26.86859078	      1.77257429	     -2.00362943	     28.73011353	     -6.50315686	      0.50143508	     13.92998700	     10.13184613	     -7.51092650	    -34.29257165	      1.48122712	     -4.60431404	    -10.78989557	    -11.89428204	      2.42293167	     33.91103863	     90.00000001	      0.00000000	      0.00000000	     23.36376425	    -15.43582117	    -21.64255617	     53.98393041	     90.00000001	      0.00000000	      0.00000000
      2.38000000	     16.59866820	      0.09086383	      1.26339711	     -0.44998209	      0.91693028	      0.00655738	      2.39562660	     -6.07405022	    -24.77337692	     24.36089792	      0.74998772	      0.42517788	      8.33828707	     36.22554149	     -7.51072100	    -26.54245669	      1.25871868	     -2.72518933	     31.55271359	     -6.38032221	      0.55069874	     11.90266534	      9.55467142	     -7.51072100	    -34.60242312	      1.62098417	     -4.28107323	     -9.75310414	    -11.86371350	      2.38096867	     33.42072970	     90.00000001	      0.00000000	      0.00000000	     22.23063015	    -15.52584575	    -21.90530058	     55.09036421	     90.00000001	      0.00000000	      0.00000000
      2.39000000	     17.15332189	     -0.12939409	      1.00860407	     -0.44013446	      0.91810170	      0.00901580	      1.28258090	     -5.58421575	    -24.26248766	     24.60214559	      0.74371994	      0.42938844	      8.68917666	     36.44669450	     -7.51059124	    -26.11679522	      0.76040751	     -3.15607520	     34.63678172	     -6.19217084	      0.60452588	      9.39122559	      9.06967187	     -7.51059124	    -34.99094851	      1.71884368	     -4.03247340	     -8.77664573	    -11.86412873	      2.38669177	     33.15881061	     90.00000001	      0.00000000	      0.00000000	     21.13698439	    -15.61209687	    -22.16666207	     56.05481796	     90.00000001	      0.00000000	      0.00000000
      2.40000000	     17.62247111	     -0.45453060	      0.74613572	     -0.43051756	      0.91920135	      0.01160315	      0.23620687	     -4.90685320	    -23.72436882	     24.69790777	      0.59401575	      0.43105981	      9.10765328	     36.56590683	     -7.51044358	    -25.33690247	      0.17944067	     -3.60886715	     38.11818561	     -6.10114302	      0.66528784	      6.80046154	      8.08298943	     -7.51044358	    -35.33354877	      1.88519805	     -3.76510012	     -7.70327401	    -11.85927416	      2.46721923	     32.90327365	     90.00000001	      0.00000000	      0.00000000	     19.93034901	    -15.62968158	    -22.45991631	     57.08531059	     90.00000001	      0.00000000	      0.00000000
      2.41000000	     18.00844291	     -0.79074793	      0.44609955	     -0.42100782	      0.92014422	      0.01437500	     -0.74236649	     -4.22857314	    -23.05818512	     24.75061261	      0.51764434	      0.43197968	      9.62192643	     36.30109602	     -7.51014296	    -24.28894943	     -0.44355835	     -3.87724207	     41.89329141	     -5.87468472	      0.73117587	      4.35701647	      6.74675469	     -7.51014296	    -35.58490431	      1.98810247	     -3.43781136	     -6.64978755	    -11.88341900	      2.63743449	     32.75667185	     90.00000001	      0.00000000	      0.00000000	     18.78776034	    -15.60511392	    -22.78875718	     57.98403501	     90.00000001	      0.00000000	      0.00000000
      2.42000000	     18.41929277	     -1.02921450	      0.25625534	     -0.41159383	      0.92117111	      0.01675371	     -1.85851490	     -3.82520472	    -22.49167554	     24.76272805	      0.79139210	      0.43219114	     10.19484300	     36.14502216	     -7.50990775	    -23.14889137	     -0.97765811	     -3.70233133	     45.67508004	     -5.54944918	      0.79718053	      1.89939312	      5.85119105	     -7.50990775	    -35.88869526	      2.05982713	     -3.22631952	     -5.69125074	    -11.93222285	      2.76108346	     32.87910624	     90.00000001	      0.00000000	      0.00000000	     17.65884709	    -15.51787766	    -23.05480054	     58.75752812	     90.00000001	      0.00000000	      0.00000000
      2.43000000	     18.68032105	     -1.43333825	      0.01896605	     -0.40258971	      0.92196419	      0.01961677	     -2.67401917	     -3.03610734	    -22.11562343	     24.78780498	      0.47342959	      0.43262881	     10.72661878	     36.12544771	     -7.50946324	    -21.71805963	     -1.66887731	     -2.87258238	     49.74354224	     -4.69349232	      0.86818859	     -0.18694216	      2.57149751	     -7.50946324	    -36.08929667	      2.19676052	     -2.93750256	     -4.58311950	    -12.00087763	      3.25932880	     32.90442036	     90.00000001	      0.00000000	      0.00000000	     16.57400299	    -15.41700249	    -23.53319821	     59.48549716	     90.00000001	      0.00000000	      0.00000000
      2.44000000	     19.04097166	     -1.52857542	     -0.06623953	     -0.39342188	      0.92295504	      0.02164581	     -3.82241533	     -2.87995189	    -21.49530798	     24.70458854	      0.95876752	      0.43117641	     11.44078901	     35.88933008	     -7.50923944	    -20.35808563	     -1.93275172	     -2.23349867	     53.39769220	     -4.43892999	      0.93196554	     -1.75040523	      1.88475437	     -7.50923944	    -36.36815320	      2.13801884	     -2.87280125	     -3.68561834	    -12.06929582	      3.35751033	     33.35020532	     90.00000001	      0.00000000	      0.00000000	     15.50624871	    -15.29115570	    -23.75098969	     60.09179698	     90.00000001	      0.00000000	      0.00000000
      2.45000000	     19.16313339	     -1.71345380	     -0.18255149	     -0.38492937	      0.92357095	      0.02402842	     -4.47468180	     -2.46727648	    -21.07353371	     24.86071331	      0.88811390	      0.43390130	     12.12354309	     35.42052695	     -7.50868548	    -18.59907991	     -2.37699170	     -0.48724760	     57.31570325	     -2.95603499	      1.00034773	     -2.88739025	     -1.75389878	     -7.50868548	    -36.47817765	      2.08864444	     -2.75772038	     -2.65974818	    -12.18235907	      4.03355495	     33.75516391	     90.00000001	      0.00000000	      0.00000000	     14.56951156	    -15.10843895	    -24.16904193	     60.48528357	     90.00000001	      0.00000000	      0.00000000
      2.46000000	     19.40984731	     -1.83079274	     -0.25282248	     -0.37626162	      0.92441770	      0.02611733	     -5.46832501	     -2.22327395	    -20.31256377	     24.72027278	      1.27317950	      0.43145015	     12.91097909	     34.99848641	     -7.50843528	    -16.98969401	     -2.63634597	      0.17775949	     60.73119413	     -2.69111511	      1.05995930	     -2.95027194	     -2.56632481	     -7.50843528	    -36.71883533	      1.99449024	     -2.68576771	     -1.72796176	    -12.25165621	      4.16272988	     34.38509309	     90.00000001	      0.00000000	      0.00000000	     13.57645010	    -14.90356557	    -24.42358986	     60.94058857	     90.00000001	      0.00000000	      0.00000000
      2.47000000	     19.46858681	     -1.95578952	     -0.29451973	     -0.36799506	      0.92499062	      0.02813900	     -6.13380382	     -1.94521341	    -19.66892189	     24.77794087	      1.50312871	      0.43245665	     13.59730774	     34.08701320	     -7.50793543	    -15.11310127	     -2.95891600	      1.71015007	     64.07633372	     -1.50378418	      1.11834300	     -2.57041720	     -4.60468743	     -7.50793543	    -36.79026579	      1.90741379	     -2.60692382	     -0.79681889	    -12.44858250	      4.72375354	     35.08914190	     90.00000001	      0.00000000	      0.00000000	     12.74881418	    -14.63156143	    -24.70191343	     61.01932861	     90.00000001	      0.00000000	      0.00000000
